<svg xmlns="http://www.w3.org/2000/svg" xmlns:xlink="http://www.w3.org/1999/xlink" version="1.1" id="Layer_1" x="0px" y="0px" width="50px" height="50px" viewBox="0 0 50 50" enable-background="new 0 0 50 50" xml:space="preserve">
<g>
	<path fill="#000000" d="M35.14,11.495c0,5.535-4.486,10.025-10.021,10.025c-5.538,0-10.023-4.49-10.023-10.025   c0-5.531,4.485-10.02,10.023-10.02C30.653,1.476,35.14,5.964,35.14,11.495z"/>
	<g>
		<path fill="#000000" d="M25.002,27.786c0,5.531-4.489,10.021-10.024,10.021c-5.536,0-10.024-4.49-10.024-10.021    c0-5.537,4.488-10.027,10.024-10.027C20.513,17.759,25.002,22.249,25.002,27.786z"/>
		<path fill="#000000" d="M45.047,27.786c0,5.531-4.486,10.021-10.024,10.021c-5.533,0-10.021-4.49-10.021-10.021    c0-5.537,4.487-10.027,10.021-10.027C40.561,17.759,45.047,22.249,45.047,27.786z"/>
	</g>
	<ellipse fill="#000000" cx="24.769" cy="22.132" rx="3.91" ry="3.631"/>
	<path fill="#000000" d="M25.192,24.743c0.047,1.018-0.977,1.875-0.993,2.805C23.809,48.427,9.126,48.524,9.126,48.524h31.75   C40.876,48.524,25.971,48.179,25.192,24.743z"/>
	<path fill="#000000" d="M29.036,25.581c0,1.748-1.574,3.162-3.521,3.162c-1.943,0-3.519-1.414-3.519-3.162   c0-1.746,1.575-3.162,3.519-3.162C27.462,22.419,29.036,23.835,29.036,25.581z"/>
</g>
</svg>